
<svg xmlns="http://www.w3.org/2000/svg" xmlns:xlink="http://www.w3.org/1999/xlink" width="140" height="51" viewBox="0 0 140 51"><defs><path id="a" d="M.047.168h97.27v23.315H.047z"/><path id="c" d="M0 .068h18.488v32.775H0z"/><path id="e" d="M0 .068h18.488v32.775H0z"/><path id="g" d="M0 50.222h139.935V.212H0z"/></defs><g fill="none" fill-rule="evenodd"><g transform="translate(42.618 9.735)"><mask id="b" fill="#fff"><use xlink:href="#a"/></mask><path fill="#FFF" d="M48.83 6.67c-.382 1.34-2.113 7.46-2.113 7.46h5.35s-1.7-6.13-2.112-7.46c-.35-1.124-.803-1.124-1.124 0zm4.958 13.533l-.627-2.218h-7.536l-.627 2.218c-.6 2.123-2.192 3.273-5.993 3.273-3.085 0-6.27-1.64-6.285-5.28v-4.47h-8.135l-.03 9.647s-4.833-.166-4.833-5.046c-.143-3.725-.02-11.916-.06-13.3 0-2.492-2.462-3.226-4.495-3.388 1.54-1.677 9.357-2.91 9.4 2.67.034 4.477.03 5.33.03 5.33h8.116s-.01-3.796-.04-4.916c-.024-.95-.925-3.13-3.99-3.6 0 0 8.963-3.718 8.963 3.63 0 7.766.024 14.36.02 14.802-.013 1.004.22 1.85 1.04 1.85.73 0 1.173-1.083 1.34-1.696.166-.613 4.162-13.285 4.68-14.828C45.815 1.627 47.602.26 49.39.26c1.79 0 3.578 1.367 4.668 4.622.517 1.543 4.513 14.215 4.68 14.828.167.613.61 1.696 1.34 1.696.83 0 1.048-1.034 1.07-1.998.02-.97 0-11.746 0-13.036 0-4.117.536-6.197 8.076-6.202 4.644-.002 9.526 2.084 9.485 6.81-.05 5.856-4.955 7.367-4.955 7.367s2.724 4.14 3.666 5.516c1.72 2.51 5.308 1.445 5.308 1.445-2.388 3.296-8.258 2.715-10.512-.863-.462-.737-3.054-5.148-3.45-5.157-2.67-.058-2.6 1.377-2.6 2.917 0 2.187-1.636 5.27-6.45 5.27-3.8 0-5.328-1.15-5.928-3.272zm20.11-12.99c-1.516-1.856-3.716-.17-3.716-.17s1.575-2.03-.12-3.454c-1.594-1.34-3.966-.095-3.966 1.712v6.693s1.472-.624 4.47-.6c3.413.026 4.533-2.712 3.333-4.18zM15.17 1.64S13.18.168 8.247.168C2.45.168.124 3.978.185 6.93.347 14.877 11.326 12.87 11.28 17c-.037 3.386-6.738 3.135-11.234.588 0 0 1.036 5.892 8.134 5.892 4.713 0 8.135-2.718 8.135-6.667 0-8.903-11.354-6.072-11.042-10.517.3-4.29 8.364-1.955 9.893-.945V1.64zm80.696 8.215c-.484 3.048-2.53 3.853-4.117 3.853h-4.6v5.603h9.994v3.98s-5.615-.024-10.474-.024c-3.888 0-4.41-2.3-4.41-4.926 0-1.51-.012-13.298-.012-13.298 0-3.407 1.78-4.443 3.728-4.52 1.27-.052 11.345 0 11.345 0-.484 3.047-2.53 3.89-4.117 3.89h-6.054v5.443h8.718z" mask="url(#b)"/></g><path fill="#B4975A" d="M17.785.973c-.736.247-1.465.552-2.514 1.206-4.38 2.72-6.343 7.726-6.54 12.57-.013.275-.02.55-.02.824v-.002l-.002.212v17.204h5.698V15.784c0-1.086.492-2.055 1.264-2.7l2.248 2.7 2.246-2.698a3.5 3.5 0 0 1 1.265 2.698v17.204h5.696V15.784a9.208 9.208 0 0 0-12.612-8.56c1.167-1.37 2.93-2.05 4.856-2.09h.006a9.31 9.31 0 0 1 1.84.144c5.04.827 8.883 5.053 8.902 10.15.01.195.014.392.014.59v16.97h5.69l.01-17.112C35.833 8.463 31.38 2.52 23.788.75a13.66 13.66 0 0 0-1.11-.203A13.145 13.145 0 0 0 20.946.41c-1.232 0-2.128.22-3.16.563"/><g transform="translate(0 .146)"><mask id="d" fill="#fff"><use xlink:href="#c"/></mask><path fill="#B4975A" d="M16.69.068C6.865.068 0 6.69 0 15.473v17.37h5.702s-.005-9.556-.005-17.382C5.697 7.293 11.894 1.467 18.11.2c.254-.053.55-.132.255-.132H16.69z" mask="url(#d)"/></g><path fill="#B4975A" d="M17.785.973c-.736.247-1.465.552-2.514 1.206-4.38 2.72-6.343 7.726-6.54 12.57-.013.275-.02.55-.02.824v-.002l-.002.212v17.204h5.698V15.784c0-1.086.492-2.055 1.264-2.7l2.248 2.7 2.246-2.698a3.5 3.5 0 0 1 1.265 2.698v17.204h5.696V15.784a9.208 9.208 0 0 0-12.612-8.56c1.167-1.37 2.93-2.05 4.856-2.09h.006a9.31 9.31 0 0 1 1.84.144c5.04.827 8.883 5.053 8.902 10.15.01.195.014.392.014.59v16.97h5.69l.01-17.112C35.833 8.463 31.38 2.52 23.788.75a13.66 13.66 0 0 0-1.11-.203A13.145 13.145 0 0 0 20.946.41c-1.232 0-2.128.22-3.16.563"/><g transform="translate(0 .146)"><mask id="f" fill="#fff"><use xlink:href="#e"/></mask><path fill="#B4975A" d="M16.69.068C6.865.068 0 6.69 0 15.473v17.37h5.702s-.005-9.556-.005-17.382C5.697 7.293 11.894 1.467 18.11.2c.254-.053.55-.132.255-.132H16.69z" mask="url(#f)"/></g><path fill="#FFF" d="M3.004 41.757a34.017 34.017 0 0 0-.558 1.616 65.032 65.032 0 0 0-.567 1.873h2.27a65.032 65.032 0 0 0-.568-1.873 34.274 34.274 0 0 0-.558-1.616h-.02zm.68-.908c.083.192.19.462.32.81.13.347.273.738.424 1.17a89.517 89.517 0 0 1 .924 2.804c.148.47.28.917.397 1.336.116.42.21.78.28 1.084H4.932a57.374 57.374 0 0 0-.243-.934c-.086-.32-.177-.642-.273-.965H1.61a51.527 51.527 0 0 0-.516 1.9H0c.07-.304.162-.665.28-1.085.116-.42.25-.865.396-1.337.148-.47.3-.947.46-1.43a78.568 78.568 0 0 1 .882-2.544c.127-.348.235-.618.325-.81h1.342zm12.996 7.204h-1.032l-.31-5.915c-.13.282-.273.61-.428.985-.155.375-.31.768-.47 1.177-.158.41-.31.82-.454 1.233-.144.413-.268.8-.37 1.157h-1.137a21.655 21.655 0 0 0-.372-1.157 41.202 41.202 0 0 0-.455-1.233 56 56 0 0 0-.47-1.177 25.515 25.515 0 0 0-.428-.986l-.31 5.914h-1.03l.37-7.205h1.353c.152.26.318.59.5.985.183.396.36.81.533 1.244.173.432.336.86.49 1.28.156.42.285.783.388 1.093.103-.31.232-.675.387-1.095.155-.42.318-.846.49-1.28.172-.433.348-.847.527-1.243.178-.396.347-.724.506-.986h1.352l.37 7.204zm4.408-2.818a1.06 1.06 0 0 1-.17.14 1.043 1.043 0 0 1-.264.108l-.856.248a2.225 2.225 0 0 0-.465.18 1.05 1.05 0 0 0-.268.2.488.488 0 0 0-.12.223 1.23 1.23 0 0 0-.025.243c0 .227.07.406.212.537a.78.78 0 0 0 .552.196c.454 0 .8-.106 1.042-.32a1.01 1.01 0 0 0 .362-.784v-.97zm1 2.818h-.856a1.43 1.43 0 0 1-.082-.268 1.705 1.705 0 0 1-.02-.3c-.27.283-.543.465-.82.548a3.093 3.093 0 0 1-.884.123 1.562 1.562 0 0 1-1.084-.44 1.466 1.466 0 0 1-.444-1.067c0-.18.026-.35.078-.51.05-.162.14-.314.263-.455.123-.14.288-.27.494-.387a3.36 3.36 0 0 1 .764-.3l.877-.247c.262-.075.446-.156.553-.242a.443.443 0 0 0 .16-.366.557.557 0 0 0-.222-.45c-.148-.12-.387-.18-.718-.18-.31 0-.626.036-.95.11a5.553 5.553 0 0 0-.846.252v-.847a2.75 2.75 0 0 1 .837-.273c.33-.06.65-.088.96-.088.31 0 .583.033.824.098s.444.172.61.32c.164.148.29.34.376.578.086.238.13.528.13.872v3.52zm1.436-6.834c0-.2.068-.367.206-.505a.687.687 0 0 1 .506-.206c.2 0 .368.067.506.205a.688.688 0 0 1 .206.506c0 .2-.07.37-.206.507a.688.688 0 0 1-.506.206.686.686 0 0 1-.506-.206.686.686 0 0 1-.206-.506zm1.218 7.185c0 .585-.145 1.034-.434 1.347-.29.313-.67.47-1.146.47-.123 0-.237-.004-.34-.01a1.697 1.697 0 0 1-.34-.063v-.878a.95.95 0 0 0 .262.072c.1.014.19.02.274.02a.98.98 0 0 0 .29-.04.465.465 0 0 0 .226-.155.87.87 0 0 0 .15-.31 1.85 1.85 0 0 0 .056-.496V42.79h1.002v5.615z"/><mask id="h" fill="#fff"><use xlink:href="#g"/></mask><path fill="#FFF" d="M26.352 48.054h1V42.79h-1v5.264zm-.217-6.833c0-.2.07-.367.207-.505a.687.687 0 0 1 .505-.206c.2 0 .368.067.506.205a.688.688 0 0 1 .207.506c0 .2-.07.37-.207.507a.688.688 0 0 1-.506.206.687.687 0 0 1-.505-.206.688.688 0 0 1-.207-.506zm6.1 4.202c0-.282-.02-.538-.062-.77a1.723 1.723 0 0 0-.21-.593c-.1-.166-.23-.293-.394-.383a1.215 1.215 0 0 0-.594-.134c-.24 0-.44.045-.6.134a1.03 1.03 0 0 0-.38.382 1.8 1.8 0 0 0-.207.593c-.042.23-.063.487-.063.77 0 .28.02.54.062.773.04.234.11.435.205.604.097.17.224.3.382.392.158.093.358.14.6.14.233 0 .43-.047.592-.14a1.07 1.07 0 0 0 .392-.392c.1-.17.17-.37.21-.604.043-.234.063-.492.063-.774zm1.002 2.632h-.857a1.13 1.13 0 0 1-.078-.304c-.01-.1-.015-.212-.015-.336-.16.234-.35.42-.578.558-.228.137-.507.206-.837.206a2.21 2.21 0 0 1-.965-.196 1.828 1.828 0 0 1-.682-.563 2.45 2.45 0 0 1-.402-.873 4.55 4.55 0 0 1-.13-1.125c0-.413.044-.788.13-1.125a2.47 2.47 0 0 1 .402-.873 1.83 1.83 0 0 1 .682-.562c.272-.13.593-.196.965-.196.323 0 .607.084.85.253.246.167.416.355.512.562V40.58h1.002v7.473zm6.513-6.297a34.017 34.017 0 0 0-.558 1.616 65.032 65.032 0 0 0-.568 1.873h2.27a66.41 66.41 0 0 0-.566-1.873 34.504 34.504 0 0 0-.558-1.616h-.02zm.68-.908c.083.192.19.462.32.81.132.347.273.738.424 1.17a101.514 101.514 0 0 1 .924 2.803c.148.47.28.918.397 1.337.117.42.21.78.28 1.084H41.68a57.374 57.374 0 0 0-.243-.934c-.086-.32-.177-.642-.273-.965h-2.808a48.766 48.766 0 0 0-.516 1.9h-1.094c.068-.304.16-.665.28-1.085.116-.42.248-.865.396-1.337.148-.47.3-.947.46-1.43a78.567 78.567 0 0 1 .882-2.544c.127-.348.235-.618.325-.81h1.34zm3.376-.27h1v5.802c0 .31.034.523.1.64.065.117.207.175.428.175h.216v.857a1.302 1.302 0 0 1-.2.03c-.08.008-.17.01-.274.01-.413 0-.728-.13-.945-.396-.216-.265-.324-.69-.324-1.275V40.58zm5.378.27h4.097v.907h-3.064v2.25h2.6v.91h-2.6v3.137h-1.032zm6.978 7.338c-.138 0-.28-.017-.424-.05a1.556 1.556 0 0 1-.78-.445 1.454 1.454 0 0 1-.283-.434 1.97 1.97 0 0 1-.155-.584 6.776 6.776 0 0 1-.04-.81V42.79h1v2.735c0 .2.002.36.005.485a3.27 3.27 0 0 0 .052.516c.01.055.026.11.046.166a.824.824 0 0 0 .294.428c.14.107.33.16.563.16.427 0 .757-.14.99-.423.235-.282.35-.75.35-1.404V42.79h1.003v5.264h-.857a1.398 1.398 0 0 1-.082-.392 4.83 4.83 0 0 1-.02-.423c-.16.288-.367.52-.625.69-.26.172-.605.258-1.038.258m4.458-4.604h-.722v-.794h.723v-1.27a3.154 3.154 0 0 1 1.002-.258v1.528h1.3v.794h-1.3v2.695c0 .2.008.363.026.494.017.13.05.234.103.31a.412.412 0 0 0 .218.16c.092.03.218.046.376.046.124 0 .264-.017.418-.05a1.44 1.44 0 0 0 .326-.104v.877a3.25 3.25 0 0 1-.336.077 2.944 2.944 0 0 1-.552.046c-.578 0-.986-.158-1.223-.474-.238-.317-.356-.764-.356-1.342v-2.736zm3.747 0h-.722v-.794h.722v-1.27a3.154 3.154 0 0 1 1-.258v1.528h1.302v.794h-1.3v2.695c0 .2.007.363.024.494.017.13.052.234.103.31a.412.412 0 0 0 .217.16c.093.03.22.046.377.046.125 0 .264-.017.42-.05.154-.036.262-.07.324-.104v.877a3.28 3.28 0 0 1-.335.077 2.944 2.944 0 0 1-.553.046c-.58 0-.986-.158-1.224-.474-.237-.317-.356-.764-.356-1.342v-2.736zm6.44 1.652a1.032 1.032 0 0 1-.17.14 1.04 1.04 0 0 1-.262.108l-.857.248a2.223 2.223 0 0 0-.464.18 1.045 1.045 0 0 0-.27.2.487.487 0 0 0-.118.223c-.017.08-.025.16-.025.243 0 .227.07.406.212.537a.78.78 0 0 0 .553.196c.453 0 .8-.106 1.042-.32.24-.212.36-.474.36-.784v-.97zm1.002 2.818h-.857a1.432 1.432 0 0 1-.083-.268 1.75 1.75 0 0 1-.02-.3c-.27.283-.542.465-.82.548a3.097 3.097 0 0 1-.884.123 1.566 1.566 0 0 1-1.084-.44 1.465 1.465 0 0 1-.443-1.067c0-.18.025-.35.076-.51a1.28 1.28 0 0 1 .264-.455c.123-.14.288-.27.495-.387.206-.117.46-.217.764-.3l.876-.247c.26-.075.446-.156.552-.242a.444.444 0 0 0 .16-.366.556.556 0 0 0-.222-.45c-.148-.12-.387-.18-.717-.18-.31 0-.627.036-.95.11a5.553 5.553 0 0 0-.847.252v-.847c.227-.124.506-.215.836-.273.33-.06.65-.088.96-.088.31 0 .584.033.825.098.24.065.444.172.61.32.164.148.29.34.376.578.087.238.13.528.13.872v3.52zm1.61 0h1V42.79h-1v5.264zm-.217-6.833c0-.2.07-.367.207-.505a.687.687 0 0 1 .505-.206c.2 0 .368.067.506.205a.688.688 0 0 1 .207.506c0 .2-.068.37-.206.507a.688.688 0 0 1-.505.206.687.687 0 0 1-.505-.206.687.687 0 0 1-.207-.506zm5.44 1.436c.144 0 .292.02.444.056a1.523 1.523 0 0 1 .82.506c.114.134.205.298.274.49.145-.295.357-.545.635-.748.28-.203.64-.304 1.08-.304.274 0 .553.07.835.21.282.142.5.38.65.718.076.166.128.36.155.584.028.224.04.494.04.81v3.076h-1V45.32a18.37 18.37 0 0 0-.015-.795 1.568 1.568 0 0 0-.02-.207.992.992 0 0 0-.047-.165.827.827 0 0 0-.294-.428.875.875 0 0 0-.543-.16c-.454 0-.79.153-1.007.46-.217.306-.325.762-.325 1.367v2.663h-1V45.32a18.5 18.5 0 0 0-.016-.795 1.564 1.564 0 0 0-.022-.207 1.012 1.012 0 0 0-.047-.165.83.83 0 0 0-.293-.428.875.875 0 0 0-.542-.16c-.433 0-.764.148-.99.444-.228.295-.34.756-.34 1.382v2.663H76.07V42.79h.857c.04.103.068.234.082.392.014.158.02.3.02.423.145-.29.34-.52.59-.69.246-.173.587-.26 1.02-.26m11.24.857c-.24 0-.44.047-.598.14a1.082 1.082 0 0 0-.386.392c-.1.168-.17.37-.212.604a4.462 4.462 0 0 0-.062.774c0 .282.02.538.062.77.04.23.112.427.212.592.1.166.228.293.386.382.16.09.358.135.6.135.233 0 .43-.044.593-.134.16-.09.29-.216.387-.382.096-.165.165-.363.206-.593.042-.23.062-.486.062-.77 0-.28-.02-.54-.062-.772a1.864 1.864 0 0 0-.206-.604 1.037 1.037 0 0 0-.387-.392 1.175 1.175 0 0 0-.594-.14m.103-.846c.372 0 .694.065.966.196.27.13.498.318.68.562.183.245.317.536.403.873.086.337.13.712.13 1.125 0 .413-.044.788-.13 1.125-.086.337-.22.628-.402.872-.183.244-.41.43-.68.562a2.22 2.22 0 0 1-.967.196c-.323 0-.607-.076-.85-.227-.246-.15-.416-.33-.51-.536v2.684h-1.003V42.79h.857c.04.103.067.204.077.304.01.1.016.212.016.336.158-.234.35-.42.577-.558.228-.137.506-.206.836-.206m3.52.124h.857c.04.103.067.21.077.325.01.113.016.232.016.356a1.74 1.74 0 0 1 .604-.567c.25-.144.51-.216.78-.216.082 0 .154.003.216.01a.802.802 0 0 1 .155.03v.98a1.62 1.62 0 0 0-.505-.09c-.448 0-.76.112-.934.34-.175.226-.263.553-.263.98v3.117h-1V42.79zm6.916 2.632c0-.282-.024-.54-.072-.774a1.798 1.798 0 0 0-.233-.604 1.126 1.126 0 0 0-.412-.392 1.233 1.233 0 0 0-.604-.14c-.24 0-.443.047-.61.14-.163.092-.3.223-.406.392-.107.168-.184.37-.232.604a3.846 3.846 0 0 0-.072.774c0 .282.024.54.072.774a1.8 1.8 0 0 0 .232.604c.107.17.243.3.408.392.165.093.368.14.61.14.233 0 .434-.047.603-.14a1.12 1.12 0 0 0 .412-.392c.107-.17.185-.37.233-.604a3.86 3.86 0 0 0 .072-.774m1.032 0c0 .413-.053.788-.16 1.125-.106.337-.26.628-.46.872a1.97 1.97 0 0 1-.737.562c-.293.13-.624.196-.996.196s-.703-.066-.995-.196a1.986 1.986 0 0 1-.738-.563 2.593 2.593 0 0 1-.46-.873 3.715 3.715 0 0 1-.16-1.125c0-.413.054-.788.16-1.125.107-.337.26-.628.46-.873.2-.244.445-.43.738-.562.292-.13.624-.196.996-.196s.704.065.997.196c.293.13.538.318.738.562.2.245.353.536.46.873.106.337.16.712.16 1.125m4.56-.124c0-.254-.02-.49-.06-.707a1.608 1.608 0 0 0-.212-.562c-.1-.158-.23-.284-.392-.376a1.174 1.174 0 0 0-.593-.14c-.24 0-.44.047-.598.14a1.127 1.127 0 0 0-.39.376c-.1.16-.17.346-.21.563a3.795 3.795 0 0 0-.062.708c0 .255.02.49.062.707.04.217.112.406.21.568.1.162.23.287.39.377.157.09.356.134.597.134.234 0 .432-.045.594-.134.162-.09.293-.215.393-.377.1-.162.17-.35.21-.568.043-.217.063-.452.063-.707zm1.003 2.343c0 .414-.064.78-.19 1.1a2.33 2.33 0 0 1-.528.81c-.223.22-.488.388-.794.5-.307.115-.635.17-.986.17-.413 0-.754-.047-1.022-.143a1.977 1.977 0 0 1-.62-.33v-.97c.228.178.482.32.764.423.283.103.58.155.888.155.255 0 .476-.047.666-.14.19-.093.344-.217.464-.37.12-.156.21-.334.27-.533.057-.2.086-.402.086-.61v-.474a1.886 1.886 0 0 1-.562.51c-.217.13-.484.192-.8.192-.372 0-.695-.065-.97-.196a1.834 1.834 0 0 1-.68-.547 2.42 2.42 0 0 1-.404-.83 3.928 3.928 0 0 1-.134-1.06c0-.377.044-.73.134-1.052.09-.323.223-.602.403-.836.178-.235.405-.417.68-.548.276-.13.6-.196.97-.196.33 0 .608.07.83.212.225.14.416.328.575.562 0-.124.006-.237.02-.34a1.29 1.29 0 0 1 .083-.31h.858v4.85zm1.652-4.85h.856c.04.103.067.21.077.325.01.113.016.232.016.356a1.74 1.74 0 0 1 .603-.567c.25-.144.51-.216.78-.216.082 0 .154.003.216.01a.796.796 0 0 1 .154.03v.98a1.617 1.617 0 0 0-.506-.09c-.448 0-.76.112-.934.34-.176.226-.263.553-.263.98v3.117h-1V42.79zm6.368 2.446a1.04 1.04 0 0 1-.17.14 1.044 1.044 0 0 1-.263.108l-.857.248a2.218 2.218 0 0 0-.464.18 1.04 1.04 0 0 0-.27.2.485.485 0 0 0-.118.223c-.017.08-.025.16-.025.243 0 .227.07.406.212.537a.78.78 0 0 0 .552.196c.454 0 .802-.106 1.043-.32.24-.212.36-.474.36-.784v-.97zm1 2.818h-.855a1.432 1.432 0 0 1-.083-.268 1.73 1.73 0 0 1-.02-.3c-.27.283-.542.465-.82.548a3.095 3.095 0 0 1-.884.123 1.565 1.565 0 0 1-1.084-.44 1.462 1.462 0 0 1-.443-1.067c0-.18.024-.35.076-.51.052-.162.14-.314.263-.455.123-.14.29-.27.495-.387a3.32 3.32 0 0 1 .763-.3l.878-.247c.26-.075.445-.156.552-.242a.443.443 0 0 0 .16-.366.557.557 0 0 0-.222-.45c-.148-.12-.387-.18-.717-.18-.31 0-.627.036-.95.11a5.553 5.553 0 0 0-.847.252v-.847c.227-.124.506-.215.836-.273.33-.06.65-.088.96-.088.31 0 .584.033.825.098.24.065.444.172.61.32.164.148.29.34.376.578.086.238.13.528.13.872v3.52zm4.182-5.398c.144 0 .292.02.444.056.15.038.297.098.438.18a1.484 1.484 0 0 1 .656.816 2.01 2.01 0 0 1 .634-.748c.28-.203.64-.304 1.08-.304.274 0 .553.07.835.21.282.142.5.38.65.718.076.166.128.36.155.584.028.224.042.494.042.81v3.076h-1V45.32a18.368 18.368 0 0 0-.017-.795 1.533 1.533 0 0 0-.02-.207.992.992 0 0 0-.047-.165.827.827 0 0 0-.294-.428.875.875 0 0 0-.542-.16c-.454 0-.79.153-1.007.46-.216.306-.325.762-.325 1.367v2.663h-1V45.32a18.63 18.63 0 0 0-.016-.795 1.564 1.564 0 0 0-.02-.207.99.99 0 0 0-.048-.165.828.828 0 0 0-.294-.428.876.876 0 0 0-.542-.16c-.433 0-.763.148-.99.444-.228.295-.34.756-.34 1.382v2.663h-1.002V42.79h.856c.04.103.07.234.083.392.013.158.02.3.02.423.144-.29.34-.52.588-.69.247-.173.588-.26 1.022-.26m9.114 0c.145 0 .293.02.444.057.15.038.298.098.44.18a1.484 1.484 0 0 1 .654.816c.145-.295.356-.545.635-.748.28-.203.638-.304 1.08-.304.274 0 .552.07.835.21.282.142.5.38.65.718.076.166.127.36.155.584.027.224.04.494.04.81v3.076h-1V45.32a18.37 18.37 0 0 0-.015-.795 1.533 1.533 0 0 0-.02-.207.992.992 0 0 0-.048-.165.827.827 0 0 0-.294-.428.875.875 0 0 0-.542-.16c-.454 0-.79.153-1.006.46-.217.306-.325.762-.325 1.367v2.663h-1.002V45.32a19.66 19.66 0 0 0-.015-.795 1.564 1.564 0 0 0-.02-.207.99.99 0 0 0-.047-.165.83.83 0 0 0-.294-.428.875.875 0 0 0-.543-.16c-.434 0-.764.148-.99.444-.228.295-.34.756-.34 1.382v2.663h-1.003V42.79h.857c.042.103.07.234.083.392.014.158.02.3.02.423.145-.29.34-.52.59-.69.247-.173.588-.26 1.02-.26m7.227 2.87c.116-.117.295-.206.536-.268l.898-.238c.606-.152.91-.41.91-.775 0-.49-.3-.733-.9-.733-.447 0-.8.172-1.058.516-.258.345-.387.81-.387 1.394v.103zm.69.485c-.323.083-.484.252-.484.506 0 .07.02.15.062.243a.832.832 0 0 0 .2.267c.094.086.213.158.357.217.145.058.317.088.516.088.33 0 .674-.044 1.028-.13a4.9 4.9 0 0 0 .965-.335v.847a3.308 3.308 0 0 1-.872.34 4.677 4.677 0 0 1-1.12.124c-.384 0-.725-.066-1.02-.196a1.928 1.928 0 0 1-.738-.563 2.506 2.506 0 0 1-.444-.873c-.1-.337-.15-.712-.15-1.125 0-.413.062-.788.186-1.125.124-.337.294-.628.51-.872.217-.245.476-.432.775-.563.3-.13.627-.196.985-.196.337 0 .626.04.866.12.243.078.442.184.6.32.158.133.276.29.35.473.077.182.115.38.115.593 0 .454-.138.798-.413 1.032-.275.234-.68.416-1.218.547l-1.053.258z" mask="url(#h)"/></g></svg>